<?xml version="1.0" encoding="utf-8"?>
<!-- Generator: Adobe Illustrator 26.4.1, SVG Export Plug-In . SVG Version: 6.00 Build 0)  -->
<svg version="1.1" id="레이어_1" xmlns="http://www.w3.org/2000/svg" xmlns:xlink="http://www.w3.org/1999/xlink" x="0px"
	 y="0px" viewBox="0 0 74.11 62.09" style="enable-background:new 0 0 74.11 62.09;" xml:space="preserve">
<style type="text/css">
	.st0{fill:none;stroke:#333333;stroke-width:4;stroke-linecap:round;stroke-linejoin:round;stroke-miterlimit:10;}
</style>
<g>
	<g>
		<path class="st0" d="M67.76,57.6h-61c-0.55,0-1-0.45-1-1v-40c0-0.55,0.45-1,1-1h61c0.55,0,1,0.45,1,1v40
			C68.76,57.15,68.31,57.6,67.76,57.6z"/>
		<path class="st0" d="M26.26,20.71v-10.7c0-2.17,1.78-3.95,3.95-3.95h3.95"/>
		<path class="st0" d="M43.45,20.71v-10.7c0-2.17,1.78-3.95,3.95-3.95h3.95"/>
		<line class="st0" x1="5.76" y1="26.1" x2="62.68" y2="26.1"/>
	</g>
	<polyline class="st0" points="44.52,42.13 50.14,47.75 50.14,47.75 50.14,47.75 58.74,39.15 	"/>
</g>
</svg>
