<?xml version="1.0" encoding="utf-8"?>
<!-- Generator: Adobe Illustrator 26.4.1, SVG Export Plug-In . SVG Version: 6.00 Build 0)  -->
<svg version="1.1" id="레이어_1" xmlns="http://www.w3.org/2000/svg" xmlns:xlink="http://www.w3.org/1999/xlink" x="0px"
	 y="0px" viewBox="0 0 66.21 69.98" style="enable-background:new 0 0 66.21 69.98;" xml:space="preserve">
<style type="text/css">
	.st0{fill:none;stroke:#333333;stroke-width:4;stroke-linecap:round;stroke-linejoin:round;stroke-miterlimit:10;}
</style>
<g>
	<path class="st0" d="M10.21,56.72c-1.72,0-3.3-0.9-4.18-2.38c-0.88-1.47-0.91-3.3-0.1-4.81l5.27-4.9v-15.8
		c0-12.53,10.23-23.52,21.9-23.52S55,16.3,55,28.83v15.8l5.27,4.9c0.82,1.51,0.78,3.33-0.1,4.81c-0.88,1.47-2.47,2.38-4.18,2.38
		H10.21z"/>
	<path class="st0" d="M26.3,57.86c0,3.76,3.05,6.81,6.81,6.81s6.81-3.05,6.81-6.81"/>
	<line class="st0" x1="11.2" y1="44.63" x2="40.5" y2="44.63"/>
</g>
</svg>
