<?xml version="1.0" encoding="utf-8"?>
<!-- Generator: Adobe Illustrator 26.4.1, SVG Export Plug-In . SVG Version: 6.00 Build 0)  -->
<svg version="1.1" id="레이어_1" xmlns="http://www.w3.org/2000/svg" xmlns:xlink="http://www.w3.org/1999/xlink" x="0px"
	 y="0px" viewBox="0 0 110.95 111.21" style="enable-background:new 0 0 110.95 111.21;" xml:space="preserve">
<style type="text/css">
	.st0{fill:#333333;}
</style>
<g>
	<g>
		<rect x="22.84" y="29.29" class="st0" width="46.66" height="2.68"/>
	</g>
	<g>
		<path class="st0" d="M58.25,23.93H32.52c-1.52,0-2.76-1.24-2.76-2.76v-6.97c0-1.52,1.24-2.76,2.76-2.76h25.73
			c1.52,0,2.76,1.24,2.76,2.76v6.97C61.01,22.69,59.77,23.93,58.25,23.93z M32.52,14.11c-0.05,0-0.08,0.04-0.08,0.08v6.97
			c0,0.05,0.04,0.08,0.08,0.08h25.73c0.05,0,0.08-0.04,0.08-0.08v-6.97c0-0.05-0.04-0.08-0.08-0.08H32.52z"/>
	</g>
	<g>
		<path class="st0" d="M33.78,70.37h-7.29c-3.12,0-5.66-2.54-5.66-5.66V9.94c0-3.12,2.54-5.66,5.66-5.66h38.69
			c3.12,0,5.66,2.54,5.66,5.66v38.54h-2.68V9.94c0-1.64-1.34-2.98-2.98-2.98H26.49c-1.64,0-2.98,1.34-2.98,2.98v54.76
			c0,1.64,1.34,2.98,2.98,2.98h7.29V70.37z"/>
	</g>
	<g>
		<path class="st0" d="M34.67,45.36c-0.74,0-1.34-0.6-1.34-1.34v-7.14c0-0.74,0.6-1.34,1.34-1.34c0.74,0,1.34,0.6,1.34,1.34v7.14
			C36.01,44.76,35.41,45.36,34.67,45.36z"/>
	</g>
	<g>
		<path class="st0" d="M38.24,41.79H31.1c-0.74,0-1.34-0.6-1.34-1.34s0.6-1.34,1.34-1.34h7.14c0.74,0,1.34,0.6,1.34,1.34
			S38.98,41.79,38.24,41.79z"/>
	</g>
	<g>
		<path class="st0" d="M59.12,43.88c-0.34,0-0.69-0.13-0.95-0.39l-5.05-5.05c-0.52-0.52-0.52-1.37,0-1.89
			c0.52-0.52,1.37-0.52,1.89,0l5.05,5.05c0.52,0.52,0.52,1.37,0,1.89C59.8,43.75,59.46,43.88,59.12,43.88z"/>
	</g>
	<g>
		<path class="st0" d="M54.06,43.88c-0.34,0-0.69-0.13-0.95-0.39c-0.52-0.52-0.52-1.37,0-1.89l5.05-5.05c0.52-0.52,1.37-0.52,1.89,0
			c0.52,0.52,0.52,1.37,0,1.89l-5.05,5.05C54.75,43.75,54.41,43.88,54.06,43.88z"/>
	</g>
	<g>
		<rect x="31.1" y="57.86" class="st0" width="7.14" height="2.68"/>
	</g>
	<g>
		<rect x="53.42" y="55.18" class="st0" width="7.14" height="2.68"/>
	</g>
	<g>
		<rect x="53.42" y="60.54" class="st0" width="7.14" height="2.68"/>
	</g>
	<g>
		<path class="st0" d="M23.03,108.04l-1.62-2.13l4.68-3.56L10.41,82.52l-4.87,3.83l-1.66-2.11l5.92-4.65
			c0.58-0.46,1.42-0.36,1.88,0.22l17.35,21.94c0.22,0.28,0.32,0.64,0.28,1c-0.05,0.36-0.23,0.68-0.52,0.9L23.03,108.04z"/>
	</g>
	<g>
		<path class="st0" d="M28.22,101.51l-1.46-2.25c2.9-1.88,5.93-2.89,9.01-3c3.44-0.13,6.44-0.16,9.09-0.19
			c5.58-0.06,9.61-0.1,12.5-1.06c7.88-2.63,37.74-17.17,42.66-21.1c0.28-0.23,0.33-0.36,0.33-0.36c-0.15-0.55-2.77-1.85-6.19-1.24
			c-10.64,1.94-20.45,5.83-20.55,5.87l-0.99-2.49c0.41-0.16,10.16-4.04,21.07-6.02c3.99-0.73,8.07,0.52,9.1,2.78
			c0.56,1.23,0.16,2.56-1.08,3.55c-5.2,4.16-35.24,18.8-43.48,21.55c-3.29,1.1-7.5,1.14-13.33,1.2c-2.63,0.03-5.61,0.06-9.01,0.18
			C33.28,99.04,30.7,99.9,28.22,101.51z"/>
	</g>
	<g>
		<path class="st0" d="M13.59,82.86l-1.65-2.11c2.98-2.34,5.22-4.29,6.47-5.64c4.43-4.79,9.78-7.42,15.07-7.42h29.54
			c3.1,0,5.77,2.11,6.35,5.01c0.38,1.89-0.09,3.81-1.3,5.28c-1.2,1.47-2.98,2.31-4.87,2.31l-15.77,0.99l-0.17-2.67l15.85-0.99
			c1.17,0,2.19-0.49,2.88-1.33c0.7-0.85,0.96-1.94,0.74-3.05c-0.33-1.65-1.9-2.85-3.72-2.85H33.48c-4.54,0-9.19,2.33-13.1,6.56
			C19.01,78.4,16.73,80.4,13.59,82.86z"/>
	</g>
	<g>
		<path class="st0" d="M91.82,48.93c-9.11,0-16.52-7.41-16.52-16.52s7.41-16.52,16.52-16.52c9.11,0,16.52,7.41,16.52,16.52
			S100.93,48.93,91.82,48.93z M91.82,18.57c-7.63,0-13.84,6.21-13.84,13.84s6.21,13.84,13.84,13.84c7.63,0,13.84-6.21,13.84-13.84
			S99.46,18.57,91.82,18.57z"/>
	</g>
	<g>
		<path class="st0" d="M91.82,26.09c-0.74,0-1.34-0.6-1.34-1.34v-2.16c0-0.74,0.6-1.34,1.34-1.34c0.74,0,1.34,0.6,1.34,1.34v2.16
			C93.16,25.49,92.56,26.09,91.82,26.09z"/>
	</g>
	<g>
		<path class="st0" d="M91.82,42.53c-0.74,0-1.34-0.6-1.34-1.34v-1.64c0-0.74,0.6-1.34,1.34-1.34c0.74,0,1.34,0.6,1.34,1.34v1.64
			C93.16,41.93,92.56,42.53,91.82,42.53z"/>
	</g>
	<g>
		<path class="st0" d="M91.48,40.2c-2.8,0-4.64-1.88-5.14-2.46c-0.48-0.56-0.42-1.41,0.14-1.89c0.56-0.48,1.41-0.42,1.89,0.14
			c0.23,0.27,1.46,1.6,3.24,1.53c0.92-0.03,2.42-0.43,2.78-1.41c0.23-0.61,0.04-1.5-0.44-2.11c-0.55-0.71-1.36-0.87-2.64-1.09
			c-1.36-0.23-3.05-0.51-4.12-2.09c-0.89-1.31-1.05-3.06-0.4-4.47c0.95-2.09,3.43-2.84,5.33-2.65c2.26,0.23,3.63,1.75,4.11,2.39
			c0.44,0.59,0.32,1.43-0.27,1.87c-0.59,0.44-1.43,0.32-1.88-0.27c-0.21-0.28-1-1.21-2.23-1.34c-1-0.1-2.25,0.28-2.62,1.09
			c-0.21,0.47-0.22,1.26,0.18,1.85c0.41,0.6,1.12,0.75,2.35,0.95c1.38,0.23,3.09,0.51,4.31,2.08c1.06,1.36,1.39,3.21,0.83,4.7
			c-0.83,2.22-3.32,3.08-5.2,3.15C91.63,40.2,91.55,40.2,91.48,40.2z"/>
	</g>
	<g>
		<path class="st0" d="M97.23,64.11H69.45c-2.19,0-3.97-1.78-3.97-3.97v-2.77c0-2.19,1.78-3.97,3.97-3.97h27.78
			c2.19,0,3.97,1.78,3.97,3.97v2.77C101.2,62.33,99.42,64.11,97.23,64.11z M69.45,56.08c-0.71,0-1.29,0.58-1.29,1.29v2.77
			c0,0.71,0.58,1.29,1.29,1.29h27.78c0.71,0,1.29-0.58,1.29-1.29v-2.77c0-0.71-0.58-1.29-1.29-1.29H69.45z"/>
	</g>
	<g>
		<path class="st0" d="M103.48,72.15H75.7c-2.19,0-3.97-1.78-3.97-3.97v-2.77c0-2.19,1.78-3.97,3.97-3.97h27.78
			c2.19,0,3.97,1.78,3.97,3.97v2.77C107.45,70.37,105.67,72.15,103.48,72.15z M75.7,64.11c-0.71,0-1.29,0.58-1.29,1.29v2.77
			c0,0.71,0.58,1.29,1.29,1.29h27.78c0.71,0,1.29-0.58,1.29-1.29v-2.77c0-0.71-0.58-1.29-1.29-1.29H75.7z"/>
	</g>
	<g>
		<rect x="44.94" y="30.63" class="st0" width="2.68" height="37.51"/>
	</g>
	<g>
		<rect x="22.17" y="48.04" class="st0" width="38.4" height="2.68"/>
	</g>
</g>
</svg>
