<?xml version="1.0" encoding="utf-8"?>
<!-- Generator: Adobe Illustrator 26.4.1, SVG Export Plug-In . SVG Version: 6.00 Build 0)  -->
<svg version="1.1" id="레이어_1" xmlns="http://www.w3.org/2000/svg" xmlns:xlink="http://www.w3.org/1999/xlink" x="0px"
	 y="0px" viewBox="0 0 66.21 69.98" style="enable-background:new 0 0 66.21 69.98;" xml:space="preserve">
<style type="text/css">
	.st0{fill:none;stroke:#333333;stroke-width:4;stroke-linecap:round;stroke-linejoin:round;stroke-miterlimit:10;}
</style>
<g>
	<g>
		<polyline class="st0" points="51.35,51.27 57.36,57.91 62.98,51.27 		"/>
		<line class="st0" x1="57.36" y1="57.91" x2="57.36" y2="64.43"/>
	</g>
	<g>
		<path class="st0" d="M34.48,52.2"/>
		<path class="st0" d="M4,65.54c1.59-11.11,9.81-19.52,21.09-22.09c0-3.29-2.85-4.75-3.34-5.09c-5.42-3.09-9.11-9.13-9.11-16.08
			C12.64,12.18,20.4,4,29.97,4s17.32,8.18,17.32,18.27c0,0.16-0.02,0.32-0.02,0.48c0,0.07,0.02,0.15,0.02,0.22
			c0,0.01-0.03,0.08-0.04,0.1c-0.26,6.38-3.61,11.89-8.53,14.94c0,0-3.09,2.88-1.43,5.43c0,0,6.92,1.16,9.99,4.5"/>
		<polyline class="st0" points="47.29,64.43 47.29,51.27 42.28,56.76 37.21,51.27 37.21,64.43 		"/>
	</g>
</g>
</svg>
