<?xml version="1.0" encoding="utf-8"?>
<!-- Generator: Adobe Illustrator 26.4.1, SVG Export Plug-In . SVG Version: 6.00 Build 0)  -->
<svg version="1.1" id="레이어_1" xmlns="http://www.w3.org/2000/svg" xmlns:xlink="http://www.w3.org/1999/xlink" x="0px"
	 y="0px" viewBox="0 0 66.21 66.99" style="enable-background:new 0 0 66.21 66.99;" xml:space="preserve">
<style type="text/css">
	.st0{fill:none;stroke:#333333;stroke-width:4;stroke-linecap:round;stroke-linejoin:round;stroke-miterlimit:10;}
</style>
<g>
	<path class="st0" d="M33.2,49.4c0,1.03-0.83,1.86-1.86,1.86c-1.03,0-1.86-0.83-1.86-1.86s0.83-1.86,1.86-1.86
		C32.36,47.54,33.2,48.37,33.2,49.4z"/>
	<path class="st0" d="M33.1,64.99c-17.09,0-31-13.9-31-31c0-17.09,13.9-31,31-31c17.09,0,31,13.91,31,31
		C64.11,51.09,50.2,64.99,33.1,64.99z"/>
	<path class="st0" d="M25.28,24.63c0,0,1.11-6.81,7.35-6.87c6.24-0.06,9.06,5.34,7.92,10.13s-9.39,4.87-10.12,12.37"/>
</g>
</svg>
