<?xml version="1.0" encoding="utf-8"?>
<!-- Generator: Adobe Illustrator 26.4.1, SVG Export Plug-In . SVG Version: 6.00 Build 0)  -->
<svg version="1.1" id="레이어_1" xmlns="http://www.w3.org/2000/svg" xmlns:xlink="http://www.w3.org/1999/xlink" x="0px"
	 y="0px" viewBox="0 0 74.98 73.49" style="enable-background:new 0 0 74.98 73.49;" xml:space="preserve">
<style type="text/css">
	.st0{fill:none;stroke:#333333;stroke-width:3;stroke-linecap:round;stroke-linejoin:round;stroke-miterlimit:10;}
</style>
<g>
	<path class="st0" d="M38.08,68.11c-17.22,0-31.23-14.01-31.23-31.23c0-17.22,14.01-31.23,31.23-31.23
		c17.22,0,31.23,14.01,31.23,31.23C69.31,54.1,55.3,68.11,38.08,68.11z"/>
</g>
<g>
	<path class="st0" d="M46.65,52.51c0-3.57-4.14-11.28-9.77-12.85c-0.65-0.23-0.9-1.07-0.08-1.56c3.04-1.35,5.16-4.3,5.16-7.84
		c0-4.8-3.89-8.68-8.68-8.68c-4.8,0-8.68,3.89-8.68,8.68c0,3.46,2.03,6.44,4.96,7.84c0.88,0.42,0.85,1.36,0.09,1.56
		c-5.61,1.58-9.73,9.4-9.73,12.85"/>
	<path class="st0" d="M56.25,49.92c0-3.57-4.14-11.28-9.77-12.85c-0.65-0.23-0.9-1.07-0.08-1.56c3.04-1.35,5.16-4.3,5.16-7.84
		c0-4.8-3.89-8.68-8.68-8.68c-2.4,0-4.57,0.97-6.14,2.54"/>
</g>
</svg>
