<?xml version="1.0" encoding="utf-8"?>
<!-- Generator: Adobe Illustrator 26.4.1, SVG Export Plug-In . SVG Version: 6.00 Build 0)  -->
<svg version="1.1" id="레이어_1" xmlns="http://www.w3.org/2000/svg" xmlns:xlink="http://www.w3.org/1999/xlink" x="0px"
	 y="0px" viewBox="0 0 110.95 95.42" style="enable-background:new 0 0 110.95 95.42;" xml:space="preserve">
<style type="text/css">
	.st0{fill:#333333;}
</style>
<g>
	<g>
		<path class="st0" d="M41.03,91.43H7.56c-0.71,0-1.29-0.58-1.29-1.29V6.89c0-0.71,0.58-1.29,1.29-1.29h67.8v2.57H8.85v80.68h32.19
			V91.43z"/>
	</g>
	<g>
		<path class="st0" d="M55.95,90.99c-0.05,0-0.11,0-0.17-0.01l-7.29-0.93c-0.34-0.04-0.65-0.22-0.86-0.49
			c-0.21-0.27-0.3-0.61-0.26-0.95l0.49-3.86c-0.93-0.42-1.81-0.93-2.64-1.51l-3.08,2.38c-0.27,0.21-0.61,0.3-0.95,0.26
			c-0.34-0.04-0.65-0.22-0.86-0.49l-4.5-5.82c-0.43-0.56-0.33-1.37,0.23-1.81l3.08-2.38c-0.35-0.95-0.62-1.93-0.8-2.94l-3.86-0.49
			c-0.34-0.04-0.65-0.22-0.86-0.49c-0.21-0.27-0.3-0.61-0.26-0.95l0.93-7.29c0.09-0.7,0.74-1.2,1.44-1.11l3.86,0.49
			c0.42-0.92,0.93-1.81,1.51-2.64l-2.38-3.08c-0.43-0.56-0.33-1.37,0.23-1.81l5.82-4.5c0.56-0.43,1.37-0.33,1.81,0.23l2.38,3.08
			c0.95-0.35,1.93-0.62,2.94-0.8l0.49-3.86c0.04-0.34,0.22-0.65,0.49-0.85c0.27-0.21,0.61-0.3,0.95-0.26l7.29,0.93
			c0.34,0.04,0.65,0.22,0.86,0.49c0.21,0.27,0.3,0.61,0.26,0.95l-0.49,3.86c0.93,0.42,1.81,0.93,2.64,1.51l3.08-2.38
			c0.27-0.21,0.61-0.3,0.95-0.26c0.34,0.04,0.65,0.22,0.86,0.49l4.5,5.82c0.43,0.56,0.33,1.37-0.23,1.81l-3.08,2.38
			c0.35,0.95,0.62,1.93,0.8,2.94l3.86,0.49c0.34,0.04,0.65,0.22,0.86,0.49c0.21,0.27,0.3,0.61,0.26,0.95l-0.93,7.29
			c-0.09,0.7-0.74,1.19-1.44,1.11l-3.86-0.49c-0.42,0.92-0.93,1.81-1.51,2.64l2.38,3.08c0.43,0.56,0.33,1.37-0.23,1.81l-5.82,4.5
			c-0.56,0.43-1.37,0.33-1.81-0.23l-2.38-3.08c-0.95,0.35-1.93,0.62-2.94,0.8l-0.49,3.86C57.14,90.51,56.59,90.99,55.95,90.99z
			 M50.1,87.65l4.74,0.61l0.46-3.55c0.08-0.59,0.54-1.05,1.13-1.12c1.43-0.16,2.82-0.54,4.13-1.12c0.54-0.24,1.18-0.08,1.54,0.39
			l2.19,2.83l3.78-2.92l-2.19-2.83c-0.36-0.47-0.36-1.13,0.01-1.59c0.9-1.12,1.61-2.37,2.13-3.71c0.21-0.55,0.78-0.89,1.37-0.82
			l3.55,0.46l0.61-4.74l-3.55-0.45c-0.59-0.08-1.05-0.54-1.12-1.13c-0.16-1.43-0.54-2.82-1.12-4.13c-0.24-0.54-0.08-1.18,0.39-1.54
			l2.83-2.19l-2.92-3.78l-2.83,2.19c-0.47,0.36-1.13,0.36-1.59-0.01c-1.12-0.89-2.37-1.61-3.71-2.12c-0.55-0.21-0.89-0.78-0.82-1.37
			l0.46-3.56l-4.74-0.61l-0.46,3.55c-0.08,0.59-0.54,1.05-1.13,1.12c-1.43,0.16-2.82,0.54-4.13,1.12c-0.54,0.24-1.18,0.08-1.54-0.39
			l-2.19-2.83l-3.78,2.92l2.19,2.83c0.36,0.47,0.36,1.13-0.01,1.59c-0.9,1.12-1.61,2.37-2.13,3.71c-0.21,0.55-0.78,0.89-1.36,0.82
			l-3.55-0.46l-0.61,4.74l3.55,0.45c0.59,0.08,1.05,0.54,1.12,1.13c0.16,1.43,0.54,2.82,1.12,4.13c0.24,0.54,0.08,1.18-0.39,1.54
			l-2.83,2.19l2.92,3.78l2.83-2.19c0.47-0.36,1.13-0.36,1.59,0.01c1.12,0.89,2.37,1.61,3.71,2.12c0.55,0.21,0.89,0.78,0.82,1.37
			L50.1,87.65z M54.81,76.83c-1.69,0-3.31-0.58-4.63-1.67c-1.5-1.24-2.43-2.99-2.61-4.93c-0.18-1.94,0.4-3.83,1.64-5.33
			c2.56-3.1,7.16-3.53,10.26-0.97c1.5,1.24,2.43,2.99,2.61,4.93c0.18,1.94-0.4,3.83-1.64,5.33c-1.24,1.5-2.99,2.43-4.93,2.61
			C55.28,76.82,55.05,76.83,54.81,76.83z M54.83,64.84c-1.36,0-2.7,0.58-3.63,1.71c-0.8,0.97-1.18,2.19-1.06,3.44
			c0.12,1.25,0.72,2.38,1.69,3.18s2.19,1.17,3.45,1.06c1.25-0.12,2.38-0.72,3.18-1.69c0.8-0.97,1.18-2.19,1.06-3.44
			c-0.12-1.25-0.72-2.38-1.69-3.18C56.95,65.19,55.89,64.84,54.83,64.84z"/>
	</g>
	<g>
		<path class="st0" d="M89.52,23.63c-0.92,0-1.86-0.17-2.78-0.52c-1.92-0.74-3.44-2.19-4.28-4.08c-0.83-1.89-0.88-3.98-0.14-5.91
			c1.53-3.97,6.01-5.95,9.99-4.42c1.92,0.74,3.44,2.19,4.28,4.08c0.83,1.89,0.88,3.98,0.14,5.91
			C95.55,21.75,92.62,23.63,89.52,23.63z M89.53,10.76c-2.07,0-4.02,1.25-4.81,3.29c-0.5,1.28-0.46,2.68,0.09,3.94
			c0.56,1.26,1.57,2.22,2.85,2.72c2.65,1.03,5.64-0.3,6.66-2.94c0.5-1.28,0.46-2.68-0.09-3.94c-0.56-1.26-1.57-2.22-2.85-2.72
			C90.77,10.87,90.15,10.76,89.53,10.76z"/>
	</g>
	<g>
		<path class="st0" d="M97.68,91.43H85.79c-0.46,0-0.89-0.25-1.11-0.64l-5.95-10.3c-0.23-0.4-0.23-0.89,0-1.29l5.95-10.3
			c0.23-0.4,0.65-0.64,1.11-0.64h11.89c0.46,0,0.89,0.25,1.11,0.64l5.95,10.3c0.23,0.4,0.23,0.89,0,1.29l-5.95,10.3
			C98.56,91.19,98.14,91.43,97.68,91.43z M86.53,88.86h10.41l5.2-9.01l-5.2-9.01H86.53l-5.2,9.01L86.53,88.86z"/>
	</g>
	<g>
		<path class="st0" d="M91.67,85.43c-3.08,0-5.58-2.5-5.58-5.58c0-3.08,2.5-5.58,5.58-5.58c3.08,0,5.58,2.5,5.58,5.58
			C97.25,82.92,94.75,85.43,91.67,85.43z M91.67,76.84c-1.66,0-3,1.35-3,3c0,1.66,1.35,3,3,3c1.66,0,3-1.35,3-3
			C94.67,78.19,93.33,76.84,91.67,76.84z"/>
	</g>
	<g>
		
			<rect x="55.02" y="15.82" transform="matrix(0.9545 -0.2982 0.2982 0.9545 -1.9303 21.5609)" class="st0" width="29.35" height="2.57"/>
	</g>
	<g>
		
			<rect x="62.11" y="21.39" transform="matrix(0.96 -0.2799 0.2799 0.96 -3.4222 21.3853)" class="st0" width="22.13" height="2.58"/>
	</g>
	<g>
		<path class="st0" d="M49.03,43.7l-0.33-3.65c-0.03-0.28,0.04-0.56,0.19-0.8l4.05-6.42l2.18,1.37l-3.82,6.05l0.29,3.21L49.03,43.7z
			"/>
	</g>
	<g>
		<path class="st0" d="M64.76,44.26l-2.55-0.34l0.49-3.7l-3.76-5.33l2.11-1.48l4.05,5.75c0.19,0.26,0.27,0.59,0.22,0.91L64.76,44.26
			z"/>
	</g>
	<g>
		<path class="st0" d="M62.47,35.2c-0.02,0-0.04,0-0.06,0l-10.94-0.53c-0.34-0.02-0.66-0.17-0.89-0.42
			c-0.23-0.25-0.35-0.59-0.33-0.93l0.33-6.91c0.18-3.73,3.38-6.63,7.08-6.43c1.8,0.09,3.47,0.87,4.68,2.21
			c1.21,1.34,1.84,3.07,1.75,4.87l-0.33,6.91C63.72,34.67,63.15,35.2,62.47,35.2z M52.87,32.17l8.37,0.4l0.27-5.62
			c0.05-1.12-0.33-2.19-1.08-3.02c-0.75-0.83-1.78-1.31-2.9-1.37c-2.32-0.11-4.28,1.68-4.39,3.98L52.87,32.17z"/>
	</g>
	<g>
		
			<rect x="94.72" y="19.04" transform="matrix(0.9988 -0.0499 0.0499 0.9988 -1.7068 4.8397)" class="st0" width="2.57" height="35.08"/>
	</g>
	<g>
		<rect x="86.09" y="22.34" class="st0" width="2.57" height="31.76"/>
	</g>
	<g>
		<path class="st0" d="M102.96,76.79l-2.52-0.54l2.65-12.37l-6.95-8.49h-8.1l-6.97,8.52l0.76,4.57L79.3,68.9l-0.86-5.15
			c-0.06-0.37,0.04-0.74,0.27-1.03l7.72-9.44c0.24-0.3,0.61-0.47,1-0.47h9.32c0.39,0,0.75,0.17,1,0.47l7.72,9.44
			c0.25,0.3,0.34,0.7,0.26,1.09L102.96,76.79z"/>
	</g>
	<g>
		<path class="st0" d="M57.01,29.57c-0.66,0-1.22-0.51-1.28-1.18l-0.07-0.86c-0.06-0.71,0.47-1.33,1.17-1.39
			c0.71-0.05,1.33,0.47,1.39,1.18l0.07,0.86c0.06,0.71-0.47,1.33-1.17,1.39C57.08,29.57,57.04,29.57,57.01,29.57z"/>
	</g>
	<g>
		<rect x="17" y="22.77" class="st0" width="25.75" height="2.57"/>
	</g>
	<g>
		<rect x="38.46" y="32.21" class="st0" width="4.29" height="2.57"/>
	</g>
	<g>
		<rect x="17" y="32.21" class="st0" width="14.59" height="2.57"/>
	</g>
	<g>
		<rect x="17" y="41.65" class="st0" width="25.75" height="2.57"/>
	</g>
</g>
</svg>
