<?xml version="1.0" encoding="utf-8"?>
<!-- Generator: Adobe Illustrator 26.4.1, SVG Export Plug-In . SVG Version: 6.00 Build 0)  -->
<svg version="1.1" id="레이어_1" xmlns="http://www.w3.org/2000/svg" xmlns:xlink="http://www.w3.org/1999/xlink" x="0px"
	 y="0px" viewBox="0 0 110.95 128.75" style="enable-background:new 0 0 110.95 128.75;" xml:space="preserve">
<style type="text/css">
	.st0{fill:#333333;}
</style>
<g>
	<g>
		<path class="st0" d="M55.13,121.79c-0.39,0-0.79-0.15-1.08-0.46c-0.57-0.59-0.56-1.52,0.02-2.1c0.05-0.05,0.09-0.09,0.14-0.13
			l0.04-0.04c0.96-0.78,1.79-0.21,1.95-0.07c0.6,0.48,0.74,1.33,0.33,1.98c-0.07,0.11-0.16,0.21-0.25,0.3l-0.14,0.13
			C55.86,121.66,55.5,121.79,55.13,121.79z M54,119.36l0.66,0.42L54,119.36z"/>
	</g>
	<g>
		<path class="st0" d="M84.57,102.53l-2.09-2.15c3.1-3.01,4.53-5.88,5.79-8.4c1.24-2.49,2.41-4.84,4.85-6.59l1.75,2.44
			c-1.84,1.32-2.76,3.16-3.91,5.49C89.66,95.91,88.04,99.16,84.57,102.53z"/>
	</g>
	<g>
		<path class="st0" d="M33.26,117.29c-1.56,0-3.03-0.61-4.13-1.71c-2.28-2.28-2.28-5.99,0-8.26l4.31-4.31
			c2.28-2.28,5.99-2.28,8.26,0c1.1,1.1,1.71,2.57,1.71,4.13c0,1.56-0.61,3.03-1.71,4.13l-4.31,4.31
			C36.29,116.69,34.82,117.29,33.26,117.29z M37.57,104.3c-0.73,0-1.46,0.28-2.01,0.83l-4.31,4.31c-1.11,1.11-1.11,2.91,0,4.02
			c1.07,1.07,2.95,1.07,4.02,0l4.31-4.31c0.53-0.53,0.83-1.25,0.83-2.01c0-0.76-0.29-1.48-0.83-2.01
			C39.03,104.58,38.3,104.3,37.57,104.3z"/>
	</g>
	<g>
		<path class="st0" d="M27.21,111.15c-1.56,0-3.03-0.61-4.13-1.71c-2.28-2.28-2.28-5.99,0-8.26l0.69-0.69
			c1.1-1.1,2.57-1.71,4.13-1.71c1.56,0,3.03,0.61,4.13,1.71c1.1,1.1,1.71,2.57,1.71,4.13c0,1.56-0.61,3.03-1.71,4.13l-0.69,0.69
			C30.24,110.55,28.77,111.15,27.21,111.15z M27.89,101.79c-0.76,0-1.48,0.29-2.01,0.83l-0.69,0.69c-1.11,1.11-1.11,2.91,0,4.02
			c1.07,1.07,2.95,1.07,4.02,0l0.69-0.69c0.53-0.53,0.83-1.25,0.83-2.01c0-0.76-0.29-1.48-0.83-2.01
			C29.37,102.08,28.65,101.79,27.89,101.79z"/>
	</g>
	<g>
		<path class="st0" d="M49.91,125.22c-1.57,0-3.04-0.6-4.14-1.7c-1.99-1.99-2.27-5.12-0.67-7.43c0.17-0.28,0.42-0.57,0.64-0.8
			l2.59-2.59c1.1-1.1,2.57-1.71,4.14-1.71c1.15,0,2.26,0.33,3.22,0.96c0.03,0.02,0.05,0.04,0.08,0.06c0.29,0.2,0.55,0.42,0.83,0.7
			c0.24,0.24,0.46,0.5,0.67,0.8c1.62,2.33,1.34,5.47-0.66,7.46l-2.55,2.56c-0.29,0.29-0.59,0.53-0.91,0.72
			C52.24,124.86,51.1,125.22,49.91,125.22z M52.47,113.98c-0.77,0-1.48,0.3-2.02,0.83l-2.56,2.56c-0.08,0.09-0.21,0.23-0.28,0.35
			c-0.82,1.2-0.68,2.71,0.28,3.68c0.92,0.92,2.52,1.08,3.6,0.33c0.19-0.12,0.3-0.21,0.42-0.33l2.55-2.56
			c0.96-0.96,1.1-2.51,0.33-3.62c-0.1-0.14-0.2-0.27-0.33-0.4c-0.15-0.15-0.27-0.25-0.39-0.33c-0.03-0.02-0.05-0.03-0.07-0.05
			C53.55,114.14,53.02,113.98,52.47,113.98z"/>
	</g>
	<g>
		<path class="st0" d="M39.54,123.3c-1.56,0-3.03-0.61-4.13-1.71c-2.28-2.28-2.28-5.99,0-8.26l5.45-5.45
			c1.1-1.1,2.57-1.71,4.13-1.71c1.56,0,3.03,0.61,4.13,1.71c2.28,2.28,2.28,5.99,0,8.26l-5.45,5.45
			C42.57,122.7,41.1,123.3,39.54,123.3z M44.99,109.18c-0.76,0-1.48,0.29-2.01,0.83l-5.45,5.45c-1.11,1.11-1.11,2.91,0,4.02
			c1.07,1.07,2.95,1.07,4.02,0l5.45-5.45c1.11-1.11,1.11-2.91,0-4.02C46.47,109.47,45.75,109.18,44.99,109.18z"/>
	</g>
	<g>
		<path class="st0" d="M94.63,88.24c-0.42,0-0.84-0.18-1.13-0.51L73.93,65.27c-0.54-0.62-0.48-1.56,0.13-2.1l5.01-4.48l2,2.24
			l-3.9,3.49l17.7,20.31L99,81.77l1.75,2.44l-5.24,3.75C95.24,88.15,94.94,88.24,94.63,88.24z"/>
	</g>
	<g>
		<path class="st0" d="M21.9,103.05l-0.41-0.35c-1.68-1.44-1.86-1.59-2.73-2.46c-2.74-2.72-4.4-5.68-5.55-7.95
			c-0.4-0.79-0.77-1.55-1.11-2.29c-0.69-1.45-1.29-2.7-1.94-3.67c-0.05-0.07-0.09-0.15-0.13-0.23c-0.03-0.02,2.37-1.82,2.37-1.82
			c0.08,0.11,0.2,0.26,0.3,0.46c0.76,1.14,1.42,2.52,2.11,3.98c0.34,0.71,0.69,1.45,1.08,2.22c1.05,2.07,2.56,4.76,4.99,7.18
			c0.8,0.79,0.9,0.88,2.56,2.31l0.41,0.35L21.9,103.05z"/>
	</g>
	<g>
		<path class="st0" d="M66.3,123.55c-1.63,0-3.17-0.59-4.23-1.62l-6.41-5.24l1.9-2.32l6.47,5.28c0.04,0.03,0.08,0.07,0.11,0.1
			c0.52,0.52,1.3,0.84,2.21,0.8c0.89-0.01,1.71-0.32,2.25-0.85c1.11-1.11,1.11-2.91,0-4.02l-10.54-9.76l2.04-2.2l10.58,9.8
			c2.32,2.32,2.32,6.03,0.04,8.3c-1.08,1.08-2.66,1.71-4.33,1.73C66.35,123.55,66.33,123.55,66.3,123.55z"/>
	</g>
	<g>
		<path class="st0" d="M42.21,88.65c-0.04,0-0.08,0-0.13,0c-1.45-0.03-2.8-0.63-3.79-1.67l-0.58-0.61c-0.18-0.2-0.33-0.38-0.46-0.56
			c-1.6-2.17-1.34-5.21,0.61-7.09L50.4,66.73c0.64-0.61,1.33-1.18,2.05-1.7c3.96-2.87,9.28-3.7,14.22-2.21
			c3.36,1.02,5.98,1.14,8.24,0.39l0.95,2.85c-2.87,0.96-6.07,0.84-10.05-0.36c-4.05-1.22-8.39-0.56-11.6,1.77
			c-0.61,0.44-1.19,0.91-1.72,1.43L39.94,80.88c-0.87,0.84-0.98,2.2-0.26,3.16c0.02,0.03,0.04,0.06,0.06,0.09
			c0.04,0.07,0.1,0.12,0.16,0.19l0.56,0.58c0.45,0.47,1.04,0.73,1.69,0.75c0.64,0.02,1.26-0.22,1.72-0.67
			c0.12-0.12,0.87-0.83,1.92-1.83c1.71-1.63,4.21-4.01,6-5.73c1.8-1.73,4.7-1.69,6.45,0.09l7.66,7.39l-2.08,2.16l-7.69-7.41
			c-0.65-0.66-1.64-0.67-2.27-0.06c-1.79,1.72-4.29,4.1-6.01,5.73c-1.04,0.99-1.79,1.7-1.91,1.82
			C44.94,88.12,43.62,88.65,42.21,88.65z"/>
	</g>
	<g>
		<path class="st0" d="M10.14,87.24c-0.3,0-0.61-0.09-0.87-0.28L4,83.21l1.74-2.45l4.17,2.96l17.71-20.31l-3.9-3.49l2-2.24
			l5.01,4.48c0.61,0.55,0.67,1.48,0.13,2.1L11.27,86.72C10.98,87.06,10.56,87.24,10.14,87.24z"/>
	</g>
	<g>
		<path class="st0" d="M50.58,67.47c-3.21-2.33-7.55-2.99-11.6-1.77c-3.98,1.2-7.18,1.32-10.05,0.36l0.95-2.85
			c2.26,0.75,4.87,0.63,8.23-0.39c4.94-1.49,10.26-0.66,14.23,2.22L50.58,67.47z"/>
	</g>
	<g>
		<path class="st0" d="M58.4,125.55c-0.58,0-1.19-0.1-1.83-0.32c-2.49-0.87-3.61-2.38-3.73-2.55l2.45-1.73l-1.23,0.86l1.21-0.88
			c0.03,0.04,0.7,0.92,2.28,1.47c2.17,0.76,3.5-1.7,3.55-1.8l2.65,1.4C63.04,123.38,61.11,125.55,58.4,125.55z"/>
	</g>
	<g>
		<path class="st0" d="M73.91,118.61c-1.15,0-2.84-0.38-4.59-2.08l2.09-2.15c0.86,0.83,1.71,1.25,2.55,1.22
			c0.75-0.02,1.51-0.41,2.14-1.09c0.54-0.59,0.82-1.35,0.79-2.15c-0.03-0.8-0.37-1.53-0.96-2.07L62.89,99.13l1.95-2.28l13.08,11.2
			c1.22,1.12,1.9,2.6,1.97,4.19c0.07,1.6-0.49,3.13-1.58,4.3c-1.18,1.29-2.7,2.02-4.26,2.06C74.01,118.61,73.96,118.61,73.91,118.61
			z"/>
	</g>
	<g>
		<path class="st0" d="M78.43,110.71c-1.41,0-2.71-0.49-3.71-1.42l2.03-2.21c0.71,0.66,1.61,0.66,2.09,0.6
			c0.85-0.11,1.68-0.53,2.27-1.17c0.54-0.59,0.82-1.35,0.79-2.15c-0.03-0.8-0.37-1.53-0.96-2.07L68.9,92.13l1.94-2.29l12.08,10.2
			c1.22,1.13,1.91,2.6,1.98,4.2c0.07,1.6-0.49,3.13-1.58,4.3c-1.06,1.15-2.56,1.92-4.1,2.12C78.95,110.7,78.69,110.71,78.43,110.71z
			"/>
	</g>
	<g>
		<path class="st0" d="M89.82,38.5h-3V13.98c0-3.27,1.48-6.31,3.97-8.13c2.76-2.02,6.05-2.4,8.79-1.01c2.61,1.33,4.24,3.97,4.24,6.9
			v3.77c0,0.83-0.67,1.5-1.5,1.5h-12.5V38.5z M89.82,14h11v-2.27c0-1.79-0.99-3.41-2.59-4.22c-1.74-0.88-3.8-0.6-5.66,0.76
			c-1.72,1.26-2.75,3.39-2.75,5.71V14z"/>
	</g>
	<g>
		<path class="st0" d="M19.82,50.5h-3V13.27c0-5.11,4.16-9.27,9.27-9.27h70.23v3H26.09c-3.46,0-6.27,2.81-6.27,6.27V50.5z"/>
	</g>
	<g>
		<rect x="64.32" y="19" class="st0" width="8" height="3"/>
	</g>
	<g>
		<rect x="34.32" y="29" class="st0" width="38" height="3"/>
	</g>
	<g>
		<rect x="34.32" y="19" class="st0" width="22" height="3"/>
	</g>
	<g>
		<path class="st0" d="M105.57,58.53c-0.07,0-0.14,0-0.21-0.02l-7.03-1.01c-0.82-0.12-1.39-0.88-1.27-1.7l1.2-8.35
			c0.12-0.82,0.88-1.4,1.7-1.27l7.03,1.01c0.39,0.06,0.75,0.27,0.99,0.59c0.24,0.32,0.34,0.72,0.28,1.11l-1.2,8.36
			c-0.06,0.39-0.27,0.75-0.59,0.99C106.2,58.43,105.89,58.53,105.57,58.53z M100.23,54.75l4.06,0.58l0.78-5.39l-4.06-0.58
			L100.23,54.75z"/>
	</g>
	<g>
		<path class="st0" d="M55.3,51c-0.22,0-0.44-0.05-0.64-0.14l-13.3-6.29c-0.6-0.28-0.94-0.92-0.84-1.57
			c0.09-0.65,0.6-1.17,1.25-1.27l14.53-2.28c0.47-0.08,0.95,0.08,1.29,0.41c0.34,0.33,0.5,0.81,0.43,1.28l-1.23,8.56
			c-0.07,0.47-0.36,0.88-0.77,1.11C55.79,50.94,55.54,51,55.3,51z M47.05,43.94l7.06,3.33l0.65-4.54L47.05,43.94z"/>
	</g>
	<g>
		<path class="st0" d="M42,44.71c-0.1,0-0.19-0.01-0.29-0.03l-3.58-0.7c-0.81-0.16-1.34-0.95-1.19-1.76
			c0.16-0.81,0.94-1.34,1.76-1.19l3.58,0.7c0.81,0.16,1.34,0.95,1.19,1.76C43.33,44.21,42.7,44.71,42,44.71z"/>
	</g>
	<g>
		
			<rect x="75.42" y="30.89" transform="matrix(0.1491 -0.9888 0.9888 0.1491 13.2799 120.9447)" class="st0" width="3" height="43.73"/>
	</g>
	<g>
		
			<rect x="76.63" y="22.43" transform="matrix(0.1539 -0.9881 0.9881 0.1539 22.3404 114.6834)" class="st0" width="3" height="43.73"/>
	</g>
</g>
</svg>
