<?xml version="1.0" encoding="utf-8"?>
<!-- Generator: Adobe Illustrator 26.4.1, SVG Export Plug-In . SVG Version: 6.00 Build 0)  -->
<svg version="1.1" id="레이어_1" xmlns="http://www.w3.org/2000/svg" xmlns:xlink="http://www.w3.org/1999/xlink" x="0px"
	 y="0px" viewBox="0 0 74.98 73.49" style="enable-background:new 0 0 74.98 73.49;" xml:space="preserve">
<style type="text/css">
	.st0{fill:none;stroke:#333333;stroke-width:3;stroke-linecap:round;stroke-linejoin:round;stroke-miterlimit:10;}
	.st1{enable-background:new    ;}
	.st2{fill:#333333;}
</style>
<g>
	<path class="st0" d="M38.08,68.11c-17.22,0-31.23-14.01-31.23-31.23S20.86,5.65,38.08,5.65s31.23,14.01,31.23,31.23
		S55.3,68.11,38.08,68.11z"/>
</g>
<g class="st1">
	<path class="st2" d="M48.69,51.56h-4.1l-3.55-12.71h-5.09L32.4,51.56h-4.1l-3.51-12.71h-4.42v-1.73h3.94L20.96,24.9h3.55
		l3.23,12.21h5.64l3.43-12.21h3.39l3.43,12.21h5.64l3.23-12.21h3.55l-3.39,12.21h3.98v1.73H52.2L48.69,51.56z M28.22,38.84l2.29,8.6
		l2.41-8.6H28.22z M40.56,37.11l-2.05-7.34l-2.05,7.34H40.56z M44.11,38.84l2.41,8.6l2.29-8.6H44.11z"/>
</g>
</svg>
