<?xml version="1.0" encoding="utf-8"?>
<!-- Generator: Adobe Illustrator 26.4.1, SVG Export Plug-In . SVG Version: 6.00 Build 0)  -->
<svg version="1.1" id="레이어_1" xmlns="http://www.w3.org/2000/svg" xmlns:xlink="http://www.w3.org/1999/xlink" x="0px"
	 y="0px" viewBox="0 0 576.74 618.23" style="enable-background:new 0 0 576.74 618.23;" xml:space="preserve">
<style type="text/css">
	.st0{opacity:0.45;}
	.st1{fill:#818C8F;}
	.st2{fill:#F4F4F4;}
	.st3{fill:#C8D3FA;}
	.st4{fill:#E2E4F9;}
	.st5{fill:none;}
	.st6{fill:#6E9CF7;}
	.st7{fill:#B5D3FD;}
	.st8{enable-background:new    ;}
	.st9{fill:#FD9D07;}
	.st10{fill:#FCD27C;}
	.st11{fill:#FFFFFF;}
	.st12{fill:#B5B5B5;}
	.st13{fill:#2665E6;}
	.st14{fill:#417FED;}
	.st15{fill:#B71C19;}
	.st16{fill:#EC4E3E;}
	.st17{fill:#F7625A;}
	.st18{opacity:0.25;fill:#69777A;}
	.st19{fill:#FD6A5A;}
	.st20{opacity:0.7;}
	.st21{clip-path:url(#SVGID_00000162317055393801863530000006134380998127124409_);}
	.st22{fill:#025FE8;}
	.st23{clip-path:url(#SVGID_00000040549683919841502470000017916287800288902310_);}
	.st24{fill:#FDCC68;}
	.st25{fill:#F0B654;}
	.st26{fill:#002766;}
	.st27{fill:#DEDEDE;}
	.st28{clip-path:url(#SVGID_00000142162862086932726850000011986249213757208243_);}
	.st29{fill:#005CFD;}
	.st30{fill:#92BBFD;}
	.st31{fill:#293497;}
	.st32{fill:#B5DFFD;}
	.st33{fill:#7CC6FD;}
	.st34{clip-path:url(#SVGID_00000021812322054390343150000003377430628320251555_);}
	.st35{clip-path:url(#SVGID_00000172417950756315083240000012147736374743747203_);}
	.st36{fill:#0126FD;}
	.st37{clip-path:url(#SVGID_00000059998334836677160900000008094207925168519833_);}
	.st38{clip-path:url(#SVGID_00000118355303658412528060000017748359278845465023_);}
	.st39{clip-path:url(#SVGID_00000088823965750737407670000018330620909306466452_);}
	.st40{clip-path:url(#SVGID_00000020370046306526558870000010565806984445720707_);}
	.st41{clip-path:url(#SVGID_00000039828350220116746610000007772606277379652251_);}
</style>
<g>
	<g class="st0">
		<polyline class="st1" points="415.22,511.93 283.59,423.25 187.81,481.54 255.88,520.24 423.54,517.47 		"/>
	</g>
	<g>
		<path class="st2" d="M302.6,412.39l-68.68-39.93l0.17,63.8c0,1.39-0.97,3.07-2.17,3.77l-52.45,30.26l68.68,39.93l52.45-30.26
			c1.2-0.7,2.17-2.38,2.17-3.77L302.6,412.39z"/>
		<g>
			<polygon class="st3" points="302.6,412.39 233.92,372.46 234.06,426.73 302.74,466.65 			"/>
		</g>
		<polygon class="st4" points="248.19,519.39 179.5,479.47 179.47,470.31 248.16,510.22 		"/>
		<path class="st5" d="M302.6,412.39l-68.68-39.93l0.17,63.8c0,1.39-0.97,3.07-2.17,3.77l-52.45,30.26l68.68,39.93l52.45-30.26
			c1.2-0.7,2.17-2.38,2.17-3.77L302.6,412.39z"/>
		<polygon class="st6" points="302.59,412.38 233.9,372.46 241.88,367.86 310.57,407.77 		"/>
		<path class="st4" d="M310.58,407.78l0.17,63.8c0.01,6.46-4.52,14.3-10.13,17.53l-52.45,30.27l-0.03-9.17l52.45-30.26
			c1.2-0.7,2.17-2.38,2.17-3.77l-0.17-63.8L310.58,407.78z"/>
	</g>
	<g>
		<g>
			<path class="st7" d="M415.06,264.33c1.8,1.04,3.27,3.58,3.26,5.65l-0.53,186.75c0,2.08-1.48,2.92-3.28,1.88L131.4,295.16
				c-1.8-1.04-3.27-3.58-3.26-5.66l0.53-186.75c0.01-2.07,1.48-2.91,3.29-1.87L415.06,264.33z"/>
		</g>
		<g>
			<path class="st2" d="M415.08,253.03c7.24,4.18,13.09,14.31,13.07,22.63l-0.66,233.44c-0.02,8.32-5.91,11.67-13.15,7.49
				l-283.1-163.45c-7.24-4.18-13.09-14.31-13.06-22.63l0.66-233.44c0.02-8.32,5.91-11.67,13.15-7.49L415.08,253.03z M417.79,456.73
				l0.53-186.75c0-2.07-1.46-4.61-3.26-5.65L131.95,100.87c-1.81-1.04-3.28-0.2-3.29,1.87l-0.53,186.75
				c-0.01,2.08,1.46,4.62,3.26,5.66l283.11,163.45C416.31,459.65,417.79,458.81,417.79,456.73"/>
		</g>
		<path class="st3" d="M424.85,247.35L141.75,83.9c-3.64-2.1-6.94-2.3-9.32-0.91c-3.26,1.89-6.51,3.78-9.77,5.68
			c2.38-1.38,5.68-1.19,9.33,0.91l283.1,163.45c7.24,4.18,13.09,14.31,13.07,22.63l-0.66,233.44c-0.01,4.13-1.47,7.04-3.82,8.41
			c3.25-1.89,6.51-3.78,9.77-5.68c2.35-1.37,3.81-4.27,3.82-8.4l0.66-233.44C437.94,261.66,432.09,251.53,424.85,247.35z"/>
	</g>
</g>
<g>
	<g class="st8">
		<g>
			<polyline class="st6" points="229.81,290.92 152.38,246.21 152.36,251.01 229.8,295.72 229.81,290.92 			"/>
			<polyline class="st6" points="229.78,304.1 152.34,259.39 152.32,264.2 229.76,308.91 229.78,304.1 			"/>
			<polyline class="st6" points="187.67,293 152.3,272.58 152.29,277.38 187.66,297.8 187.67,293 			"/>
		</g>
	</g>
</g>
<g>
	<path class="st9" d="M83.97,231.52l-40.62-23.45c-1.24-0.72-2.36-0.78-3.17-0.31c-1.85,1.07-3.69,2.15-5.54,3.22c0,0,0.01,0,0.01,0
		c-0.8,0.46-1.31,1.45-1.31,2.87l-0.09,31.28c-0.01,2.83,1.98,6.28,4.45,7.71l14.49,8.36l5.79,14.94l5.54-3.22l2.61-3.67l12.19,7.03
		c1.32,0.76,2.51,0.78,3.33,0.2c-0.05,0.04-0.1,0.08-0.15,0.11l5.54-3.22c0.8-0.47,1.3-1.46,1.3-2.86l0.09-31.28
		C88.42,236.39,86.43,232.94,83.97,231.52z M35.67,210.68c-0.06,0-0.12,0.01-0.18,0.02C35.55,210.7,35.61,210.69,35.67,210.68z
		 M34.96,210.83c-0.05,0.02-0.1,0.05-0.15,0.07C34.86,210.88,34.9,210.85,34.96,210.83z M35.3,210.73
		c-0.06,0.01-0.11,0.03-0.17,0.05C35.19,210.76,35.25,210.74,35.3,210.73z M35.88,210.69c0.06,0,0.12,0,0.19,0
		C36,210.69,35.94,210.69,35.88,210.69z M36.3,210.73c0.06,0.01,0.12,0.01,0.18,0.03C36.41,210.74,36.36,210.74,36.3,210.73z
		 M36.75,210.83c0.05,0.02,0.1,0.03,0.16,0.04C36.85,210.86,36.8,210.85,36.75,210.83z M37.23,211.01c0.04,0.02,0.08,0.03,0.12,0.05
		C37.31,211.04,37.27,211.03,37.23,211.01z M81.76,276.4c0.05-0.04,0.1-0.1,0.15-0.15C81.86,276.31,81.81,276.36,81.76,276.4z
		 M82.02,276.15c0.05-0.06,0.1-0.12,0.14-0.18C82.11,276.03,82.06,276.1,82.02,276.15z M82.76,274.24c0.01-0.16,0.02-0.33,0.02-0.51
		C82.78,273.91,82.77,274.08,82.76,274.24z M82.24,275.86c0.04-0.07,0.08-0.15,0.12-0.23C82.33,275.71,82.28,275.79,82.24,275.86z
		 M82.43,275.52c0.04-0.09,0.07-0.18,0.11-0.27C82.5,275.34,82.47,275.44,82.43,275.52z M82.58,275.14
		c0.04-0.11,0.06-0.22,0.09-0.34C82.64,274.92,82.61,275.03,82.58,275.14z M82.69,274.71c0.03-0.13,0.05-0.27,0.06-0.41
		C82.74,274.44,82.71,274.58,82.69,274.71z"/>
	<g>
		<path class="st10" d="M78.42,234.74c2.46,1.42,4.46,4.87,4.45,7.7l-0.09,31.29c-0.01,2.83-2.01,3.98-4.48,2.55l-14.49-8.36
			l-5.85,8.22l-5.79-14.94l-14.49-8.36c-2.46-1.42-4.46-4.87-4.45-7.71l0.09-31.28c0.01-2.83,2.01-3.97,4.48-2.55L78.42,234.74z"/>
	</g>
	<g>
		<g class="st8">
			<g>
				<path class="st11" d="M47.66,233.67c-1.48-0.85-2.68-0.17-2.69,1.53c-0.01,1.7,1.19,3.77,2.67,4.62
					c1.48,0.85,2.68,0.17,2.69-1.53C50.34,236.59,49.14,234.52,47.66,233.67"/>
				<path class="st11" d="M58.37,239.85c-1.48-0.85-2.68-0.17-2.69,1.53c0,1.7,1.19,3.77,2.67,4.62c1.48,0.85,2.68,0.17,2.69-1.53
					C61.05,242.77,59.85,240.7,58.37,239.85"/>
				<path class="st11" d="M69.08,246.03c-1.48-0.85-2.68-0.17-2.69,1.53c0,1.7,1.19,3.77,2.67,4.62c1.48,0.85,2.68,0.17,2.69-1.53
					C71.76,248.96,70.56,246.89,69.08,246.03"/>
			</g>
		</g>
	</g>
</g>
<g>
	<g>
		<g>
			<g class="st8">
				<g>
					<polyline class="st12" points="354.27,549.16 339.79,540.8 302.07,562.73 316.54,571.08 354.27,549.16 					"/>
					<polyline class="st12" points="360.59,572.94 346.11,564.58 325.76,576.4 340.24,584.76 360.59,572.94 					"/>
					<polyline class="st12" points="434.01,557.72 419.53,549.36 349.45,590.08 363.93,598.44 434.01,557.72 					"/>
					<polyline class="st12" points="424.56,590.65 410.09,582.29 373.14,603.76 387.62,612.12 424.56,590.65 					"/>
				</g>
			</g>
		</g>
	</g>
	<g>
		<g>
			<g class="st8">
				<g>
					<polygon class="st13" points="317.64,528.95 329.09,522.29 328.97,565.43 317.51,572.09 					"/>
				</g>
				<g>
					<polygon class="st14" points="303.32,520.69 314.78,514.03 329.09,522.29 317.64,528.95 					"/>
				</g>
				<g>
					<polygon class="st6" points="317.64,528.95 317.51,572.09 303.2,563.82 303.32,520.69 					"/>
				</g>
			</g>
			<g class="st8">
				<g>
					<polygon class="st15" points="341.01,562.34 352.46,555.69 352.39,578.96 340.94,585.62 					"/>
				</g>
				<g>
					<polygon class="st16" points="326.69,554.08 338.14,547.42 352.46,555.69 341.01,562.34 					"/>
				</g>
				<g>
					<polygon class="st17" points="341.01,562.34 340.94,585.62 326.62,577.35 326.69,554.08 					"/>
				</g>
			</g>
			<g class="st8">
				<g>
					<polygon class="st13" points="364.59,519 376.05,512.34 375.82,592.48 364.36,599.14 					"/>
				</g>
				<g>
					<polygon class="st14" points="350.28,510.73 361.73,504.08 376.05,512.34 364.59,519 					"/>
				</g>
				<g>
					<polygon class="st6" points="364.59,519 364.36,599.14 350.05,590.87 350.28,510.73 					"/>
				</g>
			</g>
			<g class="st8">
				<g>
					<polygon class="st15" points="387.91,570.42 399.37,563.76 399.25,606.01 387.79,612.66 					"/>
				</g>
				<g>
					<polygon class="st16" points="373.6,562.15 385.05,555.5 399.37,563.76 387.91,570.42 					"/>
				</g>
				<g>
					<polygon class="st17" points="387.91,570.42 387.79,612.66 373.48,604.4 373.6,562.15 					"/>
				</g>
			</g>
		</g>
	</g>
</g>
<g>
	<path class="st18" d="M398.95,344.63c0.09-30.29-21.22-67.19-47.58-82.41l-10.81,6.28v-0.13c-13.27-7.66-25.29-8.37-33.97-3.33
		l-15.79,9.18c0.03-0.02,0.06-0.03,0.09-0.05c-8.62,4.96-13.97,15.57-14.02,30.67c-0.09,30.29,21.22,67.2,47.58,82.42
		c13.65,7.88,25.98,8.39,34.71,2.85c-0.25,0.16-0.49,0.33-0.74,0.47c5.26-3.06,10.53-6.12,15.79-9.18
		c8.55-4.97,13.85-15.52,13.92-30.5L398.95,344.63z M319.87,275.01c-0.44-0.2-0.86-0.37-1.29-0.56
		C319.01,274.64,319.43,274.81,319.87,275.01z M322.3,276.2c-0.37-0.19-0.74-0.36-1.11-0.55
		C321.56,275.84,321.93,276.01,322.3,276.2z M306.12,271.13c-0.39-0.04-0.77-0.05-1.15-0.07
		C305.36,271.09,305.74,271.1,306.12,271.13z M304,271.01c-0.37-0.01-0.74,0.01-1.1,0.01C303.26,271.02,303.63,271.01,304,271.01z
		 M292.55,273.31c-0.29,0.14-0.58,0.29-0.86,0.45C291.97,273.61,292.26,273.45,292.55,273.31z M301.93,271.04
		c-0.36,0.02-0.7,0.06-1.06,0.09C301.23,271.1,301.57,271.06,301.93,271.04z M299.92,271.21c-0.34,0.04-0.67,0.11-1.01,0.16
		C299.25,271.32,299.58,271.26,299.92,271.21z M297.98,271.53c-0.33,0.07-0.65,0.15-0.97,0.23
		C297.33,271.68,297.65,271.59,297.98,271.53z M296.1,271.98c-0.32,0.09-0.62,0.2-0.93,0.3
		C295.48,272.19,295.78,272.07,296.1,271.98z M294.29,272.58c-0.31,0.11-0.6,0.25-0.9,0.38
		C293.69,272.83,293.98,272.69,294.29,272.58z M307.11,271.25c0.39,0.05,0.79,0.09,1.19,0.15
		C307.9,271.34,307.51,271.3,307.11,271.25z M317.47,273.98c-0.45-0.18-0.88-0.33-1.32-0.49
		C316.59,273.65,317.03,273.8,317.47,273.98z M315.12,273.11c-0.44-0.15-0.87-0.27-1.31-0.41
		C314.24,272.83,314.68,272.96,315.12,273.11z M312.8,272.39c-0.42-0.12-0.84-0.21-1.26-0.32
		C311.96,272.17,312.37,272.27,312.8,272.39z M310.52,271.82c-0.41-0.09-0.81-0.15-1.22-0.23
		C309.71,271.66,310.11,271.73,310.52,271.82z M359.91,389.65c0.27-0.18,0.53-0.39,0.79-0.59
		C360.44,389.26,360.18,389.46,359.91,389.65z M361.41,388.52c0.26-0.21,0.5-0.44,0.75-0.66
		C361.91,388.08,361.66,388.31,361.41,388.52z M362.82,387.27c0.25-0.24,0.48-0.49,0.71-0.74
		C363.3,386.78,363.07,387.03,362.82,387.27z M372.28,362.76c0.04-0.91,0.07-1.83,0.07-2.78
		C372.34,360.92,372.32,361.85,372.28,362.76z M364.15,385.89c0.23-0.26,0.45-0.54,0.67-0.81
		C364.6,385.35,364.38,385.62,364.15,385.89z M365.39,384.38c0.22-0.29,0.42-0.6,0.63-0.89
		C365.82,383.78,365.61,384.09,365.39,384.38z M366.54,382.74c0.21-0.31,0.4-0.65,0.59-0.98
		C366.94,382.1,366.75,382.43,366.54,382.74z M367.6,380.99c0.19-0.34,0.36-0.7,0.54-1.04C367.96,380.3,367.78,380.65,367.6,380.99z
		 M368.55,379.12c0.17-0.36,0.32-0.74,0.48-1.11C368.87,378.38,368.72,378.76,368.55,379.12z M369.41,377.12
		c0.15-0.39,0.29-0.79,0.42-1.19C369.7,376.33,369.56,376.74,369.41,377.12z M370.16,375.01c0.13-0.41,0.25-0.84,0.37-1.27
		C370.41,374.17,370.3,374.6,370.16,375.01z M370.81,372.78c0.11-0.43,0.2-0.88,0.31-1.32C371.02,371.9,370.92,372.35,370.81,372.78
		z M371.35,370.44c0.09-0.46,0.16-0.93,0.24-1.4C371.51,369.51,371.44,369.99,371.35,370.44z M371.77,367.99
		c0.07-0.5,0.13-1.02,0.19-1.53C371.9,366.97,371.85,367.49,371.77,367.99z M372.08,365.43c0.06-0.57,0.09-1.17,0.13-1.76
		C372.17,364.26,372.14,364.85,372.08,365.43z"/>
	<g class="st8">
		<g>
			<path class="st13" d="M367.49,368.53c-5.26,3.06-10.53,6.12-15.79,9.18c8.57-4.98,13.88-15.57,13.93-30.62l15.79-9.18
				C381.38,352.96,376.06,363.55,367.49,368.53z"/>
		</g>
		<g>
			<polygon class="st14" points="317.88,319.53 333.68,310.35 381.42,337.91 365.62,347.09 			"/>
		</g>
		<g>
			<polygon class="st13" points="318.04,264.67 333.83,255.49 333.68,310.35 317.88,319.53 			"/>
		</g>
		<g>
			<path class="st6" d="M318.04,264.67l-0.16,54.86l47.74,27.56c-0.09,30.29-21.53,42.52-47.9,27.29
				c-26.36-15.22-47.67-52.12-47.58-82.42C270.23,261.67,291.68,249.45,318.04,264.67z"/>
		</g>
		<g>
			<path class="st14" d="M284.07,261.34l15.79-9.18c8.68-5.04,20.7-4.33,33.97,3.33l-15.79,9.18
				C304.77,257.01,292.75,256.3,284.07,261.34z"/>
		</g>
		<g>
			<path class="st16" d="M328.85,258.52l15.8-9.18c26.36,15.22,47.67,52.12,47.58,82.41l-15.79,9.18
				C376.52,310.64,355.21,273.74,328.85,258.52z"/>
		</g>
		<g>
			<path class="st19" d="M328.85,258.52c26.37,15.22,47.67,52.13,47.58,82.41l-47.74-27.56L328.85,258.52z"/>
		</g>
	</g>
</g>
<g class="st20">
	<g class="st8">
		<defs>
			<polygon id="SVGID_1_" class="st8" points="215.1,260.23 215.3,188.67 153.02,152.72 152.82,224.28 			"/>
		</defs>
		<clipPath id="SVGID_00000116226683862740718890000011113226094582982542_">
			<use xlink:href="#SVGID_1_"  style="overflow:visible;"/>
		</clipPath>
		<g style="clip-path:url(#SVGID_00000116226683862740718890000011113226094582982542_);">
			<path class="st11" d="M200.94,232.02l-7.91-4.57l0.06-22.4l7.91,4.57L200.94,232.02 M175,217.05l-7.91-4.57l0.07-25.95l7.91,4.57
				L175,217.05 M187.97,224.54l-7.92-4.57l0.09-31.55l7.92,4.57L187.97,224.54 M159.41,156.4c-3.53-2.04-6.39-0.4-6.41,3.65
				l-0.16,56.89c-0.01,4.05,2.84,8.99,6.36,11.02l49.5,28.58c3.53,2.04,6.39,0.4,6.41-3.65l0.16-56.89
				c0.01-4.05-2.84-8.99-6.37-11.02L159.41,156.4"/>
			<polyline class="st22" points="193.09,205.06 201,209.63 200.94,232.02 193.03,227.46 193.09,205.06 			"/>
			<polyline class="st16" points="180.15,188.42 188.06,192.99 187.97,224.54 180.06,219.97 180.15,188.42 			"/>
			<polyline class="st22" points="167.17,186.53 175.07,191.09 175,217.05 167.09,212.48 167.17,186.53 			"/>
		</g>
	</g>
</g>
<g>
	<g>
		<g class="st8">
			<defs>
				<polygon id="SVGID_00000098936714556867019610000014589652376198348458_" class="st8" points="33.12,366.99 33.39,270.23 
					82.51,298.59 82.24,395.35 				"/>
			</defs>
			<clipPath id="SVGID_00000132779468680539648980000013638520238938135735_">
				<use xlink:href="#SVGID_00000098936714556867019610000014589652376198348458_"  style="overflow:visible;"/>
			</clipPath>
			<g style="clip-path:url(#SVGID_00000132779468680539648980000013638520238938135735_);">
				<g>
					<g>
						<g>
							<path class="st13" d="M57.86,315.82l6.64-3.78c0.21-0.12,0.48-0.08,0.75,0.08s0.54,0.43,0.75,0.79
								c0.42,0.72,0.42,1.49,0,1.73l-7.39,4.21c-0.21,0.12-0.48,0.08-0.75-0.08c-0.27-0.16-0.54-0.43-0.75-0.79l-7.34-12.71
								c-0.41-0.72-0.41-1.49,0-1.73c0.21-0.12,0.48-0.08,0.75,0.08c0.27,0.16,0.54,0.43,0.75,0.79L57.86,315.82 M57.95,284.41
								c-13.56-7.83-24.59-1.54-24.63,14.04c-0.03,12.23,6.7,26.55,16.15,35.93l8.21,46.79L66.13,344
								c9.47,1.54,16.27-4.96,16.3-17.19C82.47,311.23,71.51,292.24,57.95,284.41"/>
							<path class="st11" d="M65.25,312.12c-0.27-0.16-0.54-0.19-0.75-0.08l-6.64,3.78l-6.59-11.42c-0.21-0.36-0.48-0.63-0.75-0.79
								c-0.27-0.16-0.54-0.19-0.75-0.08c-0.42,0.24-0.42,1.01,0,1.73l7.34,12.71c0.21,0.36,0.48,0.63,0.75,0.79
								c0.27,0.16,0.54,0.19,0.75,0.08l7.39-4.21c0.42-0.24,0.42-1.01,0-1.73C65.8,312.55,65.52,312.27,65.25,312.12"/>
						</g>
					</g>
				</g>
			</g>
		</g>
	</g>
</g>
<g>
	<g class="st8">
		<g>
			<polyline class="st24" points="200.91,425.54 194.86,422.05 99.42,477.52 95.25,479.94 15.77,434.05 111.21,378.59 
				115.39,376.16 109.33,372.67 1.87,435.12 93.45,487.99 200.91,425.54 			"/>
			<polyline class="st25" points="111.21,378.59 15.77,434.05 95.25,479.94 99.42,477.52 19.94,431.63 111.21,378.59 			"/>
			<path class="st11" d="M88.05,407.22l2.66-1.54l53.28,30.76l-2.66,1.54L88.05,407.22 M96.02,402.59l2.66-1.54l53.28,30.76
				l-2.66,1.54L96.02,402.59 M103.99,397.96l2.66-1.54l53.28,30.76l-2.66,1.54L103.99,397.96 M111.96,393.32l2.66-1.54l53.28,30.76
				l-2.66,1.54L111.96,393.32 M194.86,422.05l-19.43-11.22l-4.27,2.48l-40.63-23.46l4.27-2.48l-19.42-11.21l-4.17,2.42l-91.27,53.04
				l79.48,45.89L194.86,422.05"/>
			<path class="st26" d="M156.65,398.21c-1.88-1.08-1.89-2.84-0.02-3.93c1.87-1.08,4.91-1.09,6.78,0c1.88,1.08,1.89,2.85,0.02,3.93
				C161.57,399.3,158.53,399.3,156.65,398.21 M169.16,390.95c-4.78-2.76-12.52-2.76-17.28,0l0,0l-11.65-6.73l-5.42,3.15l-4.27,2.48
				l40.63,23.46l4.27-2.48l5.42-3.15l-11.65-6.72h0C173.97,398.19,173.95,393.72,169.16,390.95"/>
			<polyline class="st27" points="167.9,422.54 114.62,391.78 111.96,393.32 165.24,424.09 167.9,422.54 			"/>
			<polyline class="st27" points="159.93,427.17 106.65,396.41 103.99,397.96 157.27,428.72 159.93,427.17 			"/>
			<polyline class="st27" points="151.96,431.81 98.68,401.04 96.02,402.59 149.3,433.35 151.96,431.81 			"/>
			<polyline class="st27" points="143.99,436.44 90.71,405.68 88.05,407.22 141.33,437.98 143.99,436.44 			"/>
		</g>
	</g>
</g>
<g>
	<g>
		<g class="st8">
			<defs>
				<polygon id="SVGID_00000091007412934927530810000007063669924151387528_" class="st8" points="294.71,338.76 294.9,272.66 
					354.48,307.06 354.29,373.16 				"/>
			</defs>
			<clipPath id="SVGID_00000117671948891690281220000012831720371155502496_">
				<use xlink:href="#SVGID_00000091007412934927530810000007063669924151387528_"  style="overflow:visible;"/>
			</clipPath>
			<g style="clip-path:url(#SVGID_00000117671948891690281220000012831720371155502496_);">
				<g>
					<g>
						<g>
							<polyline class="st29" points="303.21,277.45 294.9,272.66 294.89,275.1 303.2,279.9 303.21,277.45 							"/>
							<polyline class="st29" points="303.16,293.37 294.85,288.57 294.85,291.01 303.15,295.81 303.16,293.37 							"/>
							<polyline class="st29" points="303.12,309.28 294.81,304.48 294.8,306.93 303.11,311.73 303.12,309.28 							"/>
							<polyline class="st29" points="354.35,354.81 294.76,320.4 294.76,322.85 354.34,357.25 354.35,354.81 							"/>
							<polyline class="st29" points="329.34,356.31 294.72,336.32 294.71,338.76 329.34,358.75 329.34,356.31 							"/>
						</g>
					</g>
				</g>
			</g>
		</g>
	</g>
</g>
<g>
	<g>
		<g>
			<path class="st6" d="M521.97,420.03l-49.65-28.67c-1.41-0.82-2.69-0.89-3.62-0.35c-0.45,0.26-0.89,0.52-1.34,0.78
				c-0.63,0.36-1.25,0.73-1.88,1.09c-0.45,0.26-0.89,0.52-1.34,0.78c-0.16,0.09-0.38,0.22-0.54,0.31c-0.08,0.04-0.19,0.11-0.27,0.15
				c0,0,0.01,0,0.01-0.01c-0.92,0.53-1.49,1.65-1.5,3.25l-0.24,84.55c-0.01,3.23,2.27,7.16,5.07,8.78l49.65,28.67
				c1.62,0.93,3.05,0.87,3.98,0.06c-0.12,0.1-0.23,0.22-0.36,0.3c1.79-1.04,3.58-2.08,5.37-3.12c0.91-0.53,1.48-1.66,1.49-3.26
				l0.24-84.55C527.05,425.58,524.78,421.65,521.97,420.03z M464.1,393.84c-0.14,0.03-0.26,0.09-0.4,0.14
				C463.83,393.93,463.96,393.87,464.1,393.84z M464.56,393.82c0.14,0,0.26-0.03,0.41-0.02
				C464.82,393.78,464.69,393.81,464.56,393.82z M465.58,393.93c0.12,0.03,0.22,0.03,0.34,0.08
				C465.8,393.96,465.69,393.96,465.58,393.93z M520.56,519.23c0.12-0.13,0.21-0.31,0.3-0.47
				C520.77,518.92,520.68,519.09,520.56,519.23z M521.32,517.58c0.07-0.34,0.1-0.71,0.1-1.12
				C521.43,516.87,521.39,517.24,521.32,517.58z M521.02,518.51c0.1-0.2,0.16-0.44,0.22-0.68
				C521.18,518.07,521.12,518.3,521.02,518.51z"/>
			<g>
				<path class="st14" d="M516.6,423.14c2.81,1.62,5.08,5.55,5.07,8.77l-0.24,84.55c-0.01,3.23-2.29,4.53-5.1,2.91l-49.65-28.67
					c-2.8-1.62-5.08-5.55-5.07-8.78l0.24-84.55c0.01-3.22,2.3-4.51,5.1-2.89L516.6,423.14z"/>
			</g>
			<g>
				<g>
					<g class="st8">
						<g>
							<path class="st11" d="M491.04,388.26c-2.78-1.6-5.04-0.31-5.05,2.89l-0.03,22.91c-0.01,3.2,2.24,7.09,5.02,8.7
								c2.79,1.61,5.05,0.32,5.06-2.87l0.03-22.91C496.08,393.77,493.83,389.87,491.04,388.26"/>
						</g>
					</g>
				</g>
			</g>
			<g>
				<polyline class="st30" points="501.33,439.87 478.65,426.78 478.57,455.36 501.25,468.45 501.33,439.87 				"/>
			</g>
		</g>
	</g>
	<g>
		<g>
			<g class="st8">
				<g>
					<path class="st31" d="M490.27,480.15c-0.75-0.44-1.37-0.09-1.37,0.77c0,0.87,0.61,1.92,1.36,2.36l10.9,6.29
						c0.75,0.44,1.36,0.08,1.36-0.78c0-0.86-0.6-1.91-1.36-2.35L490.27,480.15 M478.7,466.02c-0.75-0.43-1.36-0.08-1.37,0.78
						c0,0.87,0.61,1.92,1.36,2.36l22.49,12.98c0.75,0.44,1.36,0.08,1.36-0.78c0-0.86-0.6-1.91-1.36-2.35L478.7,466.02"/>
				</g>
			</g>
		</g>
	</g>
</g>
<g>
	<g>
		<g>
			<g class="st8">
				<g>
					<path class="st32" d="M105.32,101.19c-2.68,1.56-5.36,3.11-8.04,4.67c-3.64,2.12-8.31,2.33-13.4,0.56l8.04-4.67
						C97.01,103.52,101.68,103.31,105.32,101.19z"/>
				</g>
				<g>
					<path class="st33" d="M128.56,122.6c-2.68,1.56-5.36,3.11-8.04,4.67c0.65-0.38,1.26-0.81,1.84-1.31l8.04-4.67
						C129.82,121.78,129.21,122.22,128.56,122.6z"/>
				</g>
				<path class="st16" d="M142.24,24.61c-12.7-7.33-24.21-8.01-32.52-3.18c-2.68,1.56-5.36,3.11-8.04,4.67
					c8.31-4.83,19.82-4.15,32.52,3.19c25.24,14.57,45.63,49.9,45.55,78.9c-0.04,14.41-5.13,24.55-13.33,29.31l8.04-4.67
					c8.2-4.77,13.29-14.91,13.33-29.31C187.87,74.51,167.48,39.18,142.24,24.61z"/>
				<g>
					<path class="st19" d="M134.2,29.28c25.24,14.57,45.63,49.9,45.55,78.9c-0.08,29-20.61,40.7-45.85,26.13
						c-3.99-2.3-7.85-5.12-11.54-8.35c-4.89,4.19-12.36,4.12-20.31-0.47c-2.07-1.19-4.17-2.69-6.26-4.5
						c-4.67-4.03-8.72-9.09-11.91-14.56c7.75,2.68,14.53,0.79,18.17-5.43c-8.5-14.46-13.75-30.84-13.71-45.59
						C88.43,26.41,108.95,14.7,134.2,29.28z"/>
				</g>
			</g>
		</g>
	</g>
	<g>
		<g>
			<g class="st8">
				<g>
					<path class="st11" d="M134.78,76.98c-2.54-1.47-4.61-0.29-4.62,2.63c-0.01,2.92,2.05,6.48,4.59,7.94
						c2.54,1.47,4.6,0.29,4.61-2.63C139.37,82,137.32,78.45,134.78,76.98 M116.98,66.7c-2.54-1.47-4.61-0.29-4.62,2.63
						c-0.01,2.92,2.05,6.48,4.59,7.94c2.54,1.47,4.61,0.29,4.62-2.63C121.57,71.73,119.52,68.17,116.98,66.7 M152.57,87.25
						c-2.54-1.47-4.6-0.29-4.61,2.63c-0.01,2.92,2.04,6.47,4.58,7.94c2.54,1.47,4.61,0.29,4.62-2.63
						C157.16,92.27,155.11,88.72,152.57,87.25"/>
				</g>
			</g>
		</g>
	</g>
</g>
<g>
	<g class="st8">
		<g>
			<path class="st29" d="M287.04,410.17c1.89,1.09,3.41,3.73,3.41,5.9c-0.01,2.18-1.55,3.04-3.43,1.96
				c-1.89-1.09-3.42-3.73-3.42-5.91C283.61,409.95,285.15,409.08,287.04,410.17"/>
			<path class="st29" d="M268.56,399.5c1.88,1.09,3.41,3.72,3.41,5.9c-0.01,2.18-1.54,3.04-3.43,1.96c-1.89-1.1-3.42-3.73-3.42-5.91
				C265.13,399.28,266.67,398.41,268.56,399.5"/>
			<path class="st29" d="M250.07,388.83c1.9,1.1,3.42,3.73,3.42,5.91c-0.01,2.17-1.54,3.04-3.44,1.95c-1.89-1.09-3.41-3.73-3.41-5.9
				C246.65,388.61,248.19,387.74,250.07,388.83"/>
			<path class="st29" d="M231.6,378.16c1.89,1.09,3.42,3.73,3.42,5.91c-0.01,2.17-1.54,3.04-3.44,1.95
				c-1.89-1.09-3.42-3.73-3.41-5.9C228.17,377.94,229.71,377.07,231.6,378.16"/>
		</g>
	</g>
</g>
<g>
	<g class="st8">
		<defs>
			<polygon id="SVGID_00000112611755195754104100000010979129476207547823_" class="st8" points="220.61,107.32 220.76,56.71 
				381.86,149.73 381.71,200.33 			"/>
		</defs>
		<clipPath id="SVGID_00000167360519105671282550000015967375251103163008_">
			<use xlink:href="#SVGID_00000112611755195754104100000010979129476207547823_"  style="overflow:visible;"/>
		</clipPath>
		<g style="clip-path:url(#SVGID_00000167360519105671282550000015967375251103163008_);">
			<polyline class="st2" points="381.79,173.73 220.69,80.71 220.68,83.31 381.78,176.33 381.79,173.73 			"/>
			<polyline class="st2" points="381.86,149.73 220.76,56.71 220.75,59.32 381.85,152.34 381.86,149.73 			"/>
			<polyline class="st2" points="271.95,134.34 220.62,104.71 220.61,107.32 271.94,136.95 271.95,134.34 			"/>
		</g>
	</g>
</g>
<g>
	<g class="st8">
		<defs>
			<polygon id="SVGID_00000101105759218561427940000007111169374014351014_" class="st8" points="395.37,288.57 395.39,280.93 
				523.66,354.98 523.64,362.63 			"/>
		</defs>
		<clipPath id="SVGID_00000165938629897110014500000014743386385218377144_">
			<use xlink:href="#SVGID_00000101105759218561427940000007111169374014351014_"  style="overflow:visible;"/>
		</clipPath>
		<g style="clip-path:url(#SVGID_00000165938629897110014500000014743386385218377144_);">
			<path class="st36" d="M398.72,282.85c-1.84-1.06-3.33-0.21-3.34,1.9c0,2.11,1.48,4.68,3.31,5.74c1.71,0.99,3.12,0.32,3.31-1.48
				l-3.3-1.91l0-0.87l3.3,1.91C401.83,286.13,400.43,283.83,398.72,282.85"/>
			<polyline class="st36" points="523.65,358.37 402.01,288.14 398.71,286.23 398.71,287.1 402.01,289.01 523.65,359.23 
				523.65,358.37 			"/>
		</g>
	</g>
</g>
<path class="st36" d="M142.85,239.56c1.83,1.06,3.32,3.63,3.32,5.74c0,2.12-1.5,2.96-3.34,1.9c-1.84-1.06-3.33-3.63-3.32-5.75
	C139.51,239.34,141,238.49,142.85,239.56"/>
<g>
	<g>
		<g class="st8">
			<defs>
				<polygon id="SVGID_00000055667797377019278590000003977275704040391580_" class="st8" points="474.81,263.51 475.01,191.57 
					507.02,210.05 506.82,281.99 				"/>
			</defs>
			<clipPath id="SVGID_00000031893739714863046400000006079760767093963420_">
				<use xlink:href="#SVGID_00000055667797377019278590000003977275704040391580_"  style="overflow:visible;"/>
			</clipPath>
			<g style="clip-path:url(#SVGID_00000031893739714863046400000006079760767093963420_);">
				<g>
					<g>
						<g>
							<path class="st11" d="M476.38,208.46l0.04-14.44l29.18,16.85l-0.04,14.44L476.38,208.46 M507.02,210.05l-32.01-18.48
								l-0.05,17.7l32.01,18.48L507.02,210.05"/>
							<path class="st11" d="M476.31,235.58l0.04-14.44l29.18,16.85l-0.04,14.44L476.31,235.58 M506.95,237.17l-32.01-18.48
								l-0.05,17.7l32.01,18.48L506.95,237.17"/>
							<path class="st11" d="M476.23,262.7l0.04-14.44l29.18,16.85l-0.04,14.44L476.23,262.7 M506.87,264.3l-32.01-18.48l-0.05,17.7
								l32.01,18.48L506.87,264.3"/>
						</g>
					</g>
				</g>
			</g>
		</g>
	</g>
</g>
<g>
	<g>
		<g class="st8">
			<defs>
				<polygon id="SVGID_00000183928808789666359300000008399168523527561624_" class="st8" points="19.51,167.04 19.56,148.3 
					84.93,186.04 84.88,204.78 				"/>
			</defs>
			<clipPath id="SVGID_00000068655193791449395400000002103095351834519443_">
				<use xlink:href="#SVGID_00000183928808789666359300000008399168523527561624_"  style="overflow:visible;"/>
			</clipPath>
			<g style="clip-path:url(#SVGID_00000068655193791449395400000002103095351834519443_);">
				<g>
					<g>
						<g>
							<path class="st2" d="M27.67,170.12c-3.72-2.15-6.73-7.36-6.71-11.63c0.01-4.27,3.04-6,6.76-3.85l49.05,28.32
								c3.72,2.15,6.73,7.36,6.71,11.63c-0.01,4.27-3.04,6-6.76,3.85L27.67,170.12 M76.77,181.33l-49.05-28.32
								c-4.49-2.6-8.16-0.5-8.18,4.66c-0.01,5.17,3.63,11.48,8.13,14.08l49.05,28.32c4.5,2.6,8.17,0.51,8.19-4.66
								C84.92,190.25,81.27,183.93,76.77,181.33"/>
						</g>
					</g>
				</g>
			</g>
		</g>
	</g>
</g>
<g>
	<g>
		<g class="st8">
			<defs>
				<polygon id="SVGID_00000097485562961707070130000001254356272992624544_" class="st8" points="19.51,131.94 19.56,113.2 
					84.93,150.94 84.88,169.68 				"/>
			</defs>
			<clipPath id="SVGID_00000035501340986418023010000002806609362359898246_">
				<use xlink:href="#SVGID_00000097485562961707070130000001254356272992624544_"  style="overflow:visible;"/>
			</clipPath>
			<g style="clip-path:url(#SVGID_00000035501340986418023010000002806609362359898246_);">
				<g>
					<g>
						<g>
							<path class="st2" d="M27.67,135.02c-3.72-2.15-6.73-7.36-6.71-11.63c0.01-4.27,3.04-6,6.76-3.85l49.05,28.32
								c3.72,2.15,6.73,7.36,6.71,11.63c-0.01,4.27-3.04,6-6.76,3.85L27.67,135.02 M76.77,146.23l-49.05-28.32
								c-4.49-2.6-8.16-0.5-8.18,4.66c-0.01,5.17,3.63,11.48,8.13,14.08l49.05,28.32c4.5,2.6,8.17,0.51,8.19-4.66
								C84.92,155.15,81.27,148.83,76.77,146.23"/>
						</g>
					</g>
				</g>
			</g>
		</g>
	</g>
</g>
<g>
	<g>
		<g class="st8">
			<defs>
				<polygon id="SVGID_00000106825598924532546210000002964637833102188711_" class="st8" points="534.6,381.76 534.69,350.44 
					564.9,367.89 564.81,399.2 				"/>
			</defs>
			<clipPath id="SVGID_00000024720102364172885000000006654861121203197110_">
				<use xlink:href="#SVGID_00000106825598924532546210000002964637833102188711_"  style="overflow:visible;"/>
			</clipPath>
			<g style="clip-path:url(#SVGID_00000024720102364172885000000006654861121203197110_);">
				<g>
					<g>
						<g>
							<polyline class="st2" points="564.86,382.32 534.65,364.87 534.64,367.32 564.85,384.76 564.86,382.32 							"/>
							<polyline class="st2" points="564.9,367.89 534.69,350.44 534.68,352.89 564.89,370.33 564.9,367.89 							"/>
							<polyline class="st2" points="541.5,383.29 534.61,379.31 534.6,381.76 541.5,385.74 541.5,383.29 							"/>
						</g>
					</g>
				</g>
			</g>
		</g>
	</g>
</g>
<g>
	<g class="st8">
		<g>
			<polyline class="st2" points="434.54,172.87 456.99,185.83 456.86,234.22 423.08,214.72 423.17,179.35 434.51,185.89 
				434.54,172.87 			"/>
			<polyline class="st13" points="434.54,172.87 434.51,185.89 423.17,179.35 434.54,172.87 			"/>
		</g>
	</g>
</g>
<g>
	<g class="st8">
		<defs>
			<polygon id="SVGID_00000000194175234913583580000000653879560179355556_" class="st8" points="220.93,42.47 221.05,1.99 
				272.29,31.57 272.18,72.06 			"/>
		</defs>
		<clipPath id="SVGID_00000168112942292932163460000016514839378344216745_">
			<use xlink:href="#SVGID_00000000194175234913583580000000653879560179355556_"  style="overflow:visible;"/>
		</clipPath>
		<g style="clip-path:url(#SVGID_00000168112942292932163460000016514839378344216745_);">
			<polyline class="st2" points="229.03,17.66 221.02,13.03 220.93,42.47 228.94,47.09 229.03,17.66 			"/>
			<polyline class="st2" points="243.4,37.93 235.4,33.31 235.35,50.79 243.35,55.41 243.4,37.93 			"/>
			<polyline class="st2" points="257.88,23.25 249.88,18.63 249.76,59.11 257.77,63.73 257.88,23.25 			"/>
			<polyline class="st2" points="272.26,42.62 264.25,37.99 264.17,67.43 272.18,72.06 272.26,42.62 			"/>
		</g>
	</g>
</g>
</svg>
