<?xml version="1.0" encoding="utf-8"?>
<!-- Generator: Adobe Illustrator 26.4.1, SVG Export Plug-In . SVG Version: 6.00 Build 0)  -->
<svg version="1.1" id="레이어_1" xmlns="http://www.w3.org/2000/svg" xmlns:xlink="http://www.w3.org/1999/xlink" x="0px"
	 y="0px" viewBox="0 0 183.43 39.38" style="enable-background:new 0 0 183.43 39.38;" xml:space="preserve">
<style type="text/css">
	.st0{fill:url(#SVGID_1_);}
	.st1{fill:#4476F6;}
	.st2{fill:#4BCAFF;}
</style>
<g>
	<linearGradient id="SVGID_1_" gradientUnits="userSpaceOnUse" x1="30.6441" y1="18.6439" x2="182.2296" y2="18.6439">
		<stop  offset="0.021" style="stop-color:#4476F6"/>
		<stop  offset="0.4874" style="stop-color:#4BCAFF"/>
		<stop  offset="1" style="stop-color:#4476F6"/>
	</linearGradient>
	<path class="st0" d="M30.64,24.65V12.64c0-2.29,1.43-3.43,4.3-3.43h13.16v2.96H35.25c-0.76,0-1.14,0.31-1.14,0.92V24.2
		c0,0.61,0.38,0.92,1.14,0.92h12.86v2.96H34.95C32.08,28.09,30.64,26.94,30.64,24.65z M50.25,24.88v-8.06
		c0-2.14,1.33-3.21,4.01-3.21h7.14c2.67,0,4.01,1.07,4.01,3.21v8.06c0,2.14-1.33,3.21-4.01,3.21h-7.14
		C51.58,28.09,50.25,27.02,50.25,24.88z M53.71,24.4c0,0.53,0.33,0.8,1,0.8h6.22c0.68,0,1.02-0.26,1.02-0.8v-7.12
		c0-0.53-0.34-0.8-1.02-0.8H54.7c-0.66,0-1,0.27-1,0.8V24.4z M67.22,24.88v-8.06c0-2.14,1.33-3.21,4.01-3.21h7.44V9.2h3.46v18.88
		h-10.9C68.55,28.09,67.22,27.02,67.22,24.88z M70.67,24.4c0,0.53,0.33,0.8,1,0.8h6.99v-8.71h-6.99c-0.66,0-1,0.27-1,0.8V24.4z
		 M84.01,24.88v-8.06c0-2.14,1.33-3.21,4.01-3.21h6.57c2.67,0,4.01,1.07,4.01,3.21v5.5H87.47v2.09c0,0.53,0.33,0.8,1,0.8h9.55v2.89
		h-10C85.34,28.09,84.01,27.02,84.01,24.88z M87.47,19.43h7.66v-2.14c0-0.53-0.34-0.8-1.02-0.8h-5.65c-0.66,0-1,0.27-1,0.8V19.43z
		 M100.2,28.09V9.2h4.6l7.17,15l7.14-15h4.6v18.88h-3.46V14.9l-6.29,13.19h-4.01l-6.29-13.19v13.19H100.2z M125.53,24.88v-2.26
		c0-2.12,1.33-3.18,4.01-3.18h7.12v-2.14c0-0.53-0.33-0.8-1-0.8h-8.98v-2.89h9.45c2.67,0,4.01,1.07,4.01,3.21v11.27h-10.6
		C126.87,28.09,125.53,27.02,125.53,24.88z M129.01,24.4c0,0.53,0.33,0.8,1,0.8h6.64v-2.89h-6.64c-0.66,0-1,0.27-1,0.8V24.4z
		 M141.95,24.88V9.2h3.46v4.4h5.4v2.89h-5.4v7.91c0,0.53,0.33,0.8,1,0.8h4.4v2.89h-4.85C143.29,28.09,141.95,27.02,141.95,24.88z
		 M152.3,24.88v-8.06c0-2.14,1.33-3.21,4.01-3.21h6.57c2.67,0,4.01,1.07,4.01,3.21v5.5h-11.12v2.09c0,0.53,0.33,0.8,1,0.8h9.55v2.89
		h-10C153.64,28.09,152.3,27.02,152.3,24.88z M155.76,19.43h7.66v-2.14c0-0.53-0.34-0.8-1.02-0.8h-5.65c-0.66,0-1,0.27-1,0.8V19.43z
		 M168.5,28.09V25.2h9.25c0.68,0,1.02-0.26,1.02-0.8v-1.29c0-0.53-0.34-0.8-1.02-0.8h-5.25c-2.67,0-4.01-1.07-4.01-3.21v-2.29
		c0-2.14,1.33-3.21,4.01-3.21h8.58v2.89h-8.11c-0.66,0-1,0.27-1,0.8v1.32c0,0.55,0.33,0.82,1,0.82h5.25c2.67,0,4.01,1.06,4.01,3.18
		v2.26c0,2.14-1.33,3.21-4.01,3.21H168.5z"/>
	<g>
		<g>
			<path class="st1" d="M19.71,6.26c-6.3,0-11.78,4.28-13.32,10.4l-0.02,0.08H8.4l0.01-0.05c1.47-4.98,6.11-8.46,11.3-8.46h0.07
				V6.26H19.71z"/>
			<path class="st1" d="M19.71,2C11.06,2,3.62,8.17,2.02,16.66L2,16.74h2.01l0.01-0.05C5.58,9.32,12.18,3.97,19.71,3.97h0.07V2
				H19.71z"/>
			<path class="st1" d="M18.05,23.28l-0.01,0.05c-1.47,4.98-6.11,8.46-11.3,8.46H6.67v1.97h0.07c6.3,0,11.78-4.28,13.32-10.4
				l0.02-0.08H18.05z"/>
			<path class="st1" d="M22.44,23.28l-0.01,0.05c-1.56,7.37-8.16,12.72-15.69,12.72H6.67v1.97h0.07c8.65,0,16.09-6.17,17.69-14.66
				l0.02-0.08H22.44z"/>
		</g>
		<path class="st2" d="M19.71,10.51c-4.9,0-8.95,3.66-9.45,8.51h-3.9V21h5.82v-0.99c0-4.15,3.38-7.53,7.53-7.53h0.07v-1.97H19.71z"
			/>
		<path class="st2" d="M14.27,19.03v0.99c0,4.15-3.38,7.53-7.53,7.53H6.67v1.97h0.07c4.9,0,8.95-3.66,9.45-8.51h3.88v-1.97H14.27z"
			/>
	</g>
</g>
</svg>
