<?xml version="1.0" encoding="utf-8"?>
<!-- Generator: Adobe Illustrator 26.4.1, SVG Export Plug-In . SVG Version: 6.00 Build 0)  -->
<svg version="1.1" id="레이어_1" xmlns="http://www.w3.org/2000/svg" xmlns:xlink="http://www.w3.org/1999/xlink" x="0px"
	 y="0px" viewBox="0 0 183.43 39.38" style="enable-background:new 0 0 183.43 39.38;" xml:space="preserve">
<style type="text/css">
	.st0{fill:#FFFFFF;}
	.st1{font-family:'KIMM_Bold';}
	.st2{font-size:24.8788px;}
	.st3{letter-spacing:-1;}
	.st4{fill:#4476F6;}
	.st5{fill:#4BCAFF;}
</style>
<g>
	<text transform="matrix(1 0 0 1 28.598 26.9097)" class="st0 st1 st2 st3">CodeMates</text>
	<g>
		<g>
			<path class="st4" d="M19.31,5.63C13,5.63,7.52,9.9,5.98,16.03l-0.02,0.08h2.03l0.01-0.05c1.47-4.98,6.11-8.46,11.3-8.46h0.07
				V5.63H19.31z"/>
			<path class="st4" d="M19.31,1.37c-8.65,0-16.09,6.17-17.69,14.66L1.6,16.11H3.6l0.01-0.05C5.17,8.69,11.77,3.34,19.31,3.34h0.07
				V1.37H19.31z"/>
			<path class="st4" d="M17.65,22.65l-0.01,0.05c-1.47,4.98-6.11,8.46-11.3,8.46H6.27v1.97h0.07c6.3,0,11.78-4.28,13.32-10.4
				l0.02-0.08H17.65z"/>
			<path class="st4" d="M22.04,22.65l-0.01,0.05c-1.56,7.37-8.16,12.72-15.69,12.72H6.27v1.97h0.07c8.65,0,16.09-6.17,17.69-14.66
				l0.02-0.08H22.04z"/>
		</g>
		<path class="st5" d="M19.31,9.88c-4.9,0-8.95,3.66-9.45,8.51h-3.9v1.97h5.82v-0.99c0-4.15,3.38-7.53,7.53-7.53h0.07V9.88H19.31z"
			/>
		<path class="st5" d="M13.86,18.4v0.99c0,4.15-3.38,7.53-7.53,7.53H6.27v1.97h0.07c4.9,0,8.95-3.66,9.45-8.51h3.88V18.4H13.86z"/>
	</g>
</g>
</svg>
